- 
http://www.Speed.Cd
 
http://www.Speed.Cd       the fast  and The Hottest Private Tracker on the net

Please Seed back to make the speed Faster!!
 ............ NFO .............
-[IMG]http://i.imgur.com/iqICPeV.jpg[/IMG]

Source: PAL DVDR-P2H - Thanks
 
http://www.imdb.com/title/tt2202569/

Afraid of losing his badge is in a detective from the big city with it to a sheriff from a village to help with a routine job for a couple of missing persons. He discovers that the past two decades, every year at least one girl disappears in the sleepy fishing village Grizzly Cove.

General
Complete name                            : Sorority Party Massacre 2013 DVDRip x264 AC3-OFFLiNE.mkv
Format                                   : Matroska
Format version                           : Version 4 / Version 2
File size                                : 1.46 GiB
Duration                                 : 1h 39mn
Overall bit rate mode                    : Variable
Overall bit rate                         : 2 111 Kbps
Encoded date                             : UTC 2013-03-10 21:57:46
Writing application                      : mkvmerge v6.1.0 ('Old Devil') built on Mar  2 2013 14:32:37
Writing library                          : libebml v1.3.0 + libmatroska v1.4.0

Video
ID                                       : 1
Format                                   : AVC
Format/Info                              : Advanced Video Codec
Format profile                           : High@L4.1
Format settings, CABAC                   : Yes
Format settings, ReFrames                : 3 frames
Codec ID                                 : V_MPEG4/ISO/AVC
Duration                                 : 1h 39mn
Bit rate mode                            : Variable
Bit rate                                 : 1 725 Kbps
Maximum bit rate                         : 40.0 Mbps
Width                                    : 720 pixels
Height                                   : 400 pixels
Display aspect ratio                     : 16:9
Frame rate mode                          : Constant
Frame rate                               : 25.000 fps
Color space                              : YUV
Chroma subsampling                       : 4:2:0
Bit depth                                : 8 bits
Scan type                                : Progressive
Bits/(Pixel*Frame)                       : 0.240
Stream size                              : 1.17 GiB (80%)
Writing library                          : x264 core 130 r2273 b3065e6

Audio
ID                                       : 2
Format                                   : AC-3
Format/Info                              : Audio Coding 3
Mode extension                           : CM (complete main)
Format settings, Endianness              : Big
Codec ID                                 : A_AC3
Duration                                 : 1h 39mn
Bit rate mode                            : Constant
Bit rate                                 : 384 Kbps
Channel(s)                               : 6 channels
Channel positions                        : Front: L C R, Side: L R, LFE
Sampling rate                            : 48.0 KHz
Bit depth                                : 16 bits
Compression mode                         : Lossy
Delay relative to video                  : 244ms
Stream size                              : 272 MiB (18%)
Language                                 : English
Default                                  : Yes
Forced                                   : No

[IMG]http://i.imgur.com/VhvnSvX.png[/IMG]
[IMG]http://i.imgur.com/C11dIIL.png[/IMG]
[IMG]http://i.imgur.com/XxaqrlA.png[/IMG]
[IMG]http://i.imgur.com/lilSAuM.png[/IMG]
[IMG]http://i.imgur.com/PRkQa6z.png[/IMG]

Greets: To Our Friends